<svg width="33" height="30" viewBox="0 0 33 30" fill="none" xmlns="http://www.w3.org/2000/svg">
<path d="M32.2279 13.9098C32.234 16.0697 31.6819 18.2004 30.6165 20.1283C29.3532 22.4386 27.4111 24.3817 25.0078 25.7401C22.6045 27.0986 19.8349 27.8186 17.0091 27.8196C14.646 27.8252 12.3148 27.3206 10.2055 26.3468L0 29.4561L3.40183 20.1283C2.3364 18.2004 1.78428 16.0697 1.79044 13.9098C1.79153 11.3271 2.57932 8.79569 4.06558 6.59909C5.55183 4.40249 7.67785 2.62747 10.2055 1.47285C12.3148 0.49905 14.646 -0.0055848 17.0091 4.66192e-05H17.9044C21.6363 0.188224 25.1611 1.62792 27.8039 4.04347C30.4468 6.45902 32.022 9.68069 32.2279 13.0916V13.9098Z" fill="white"/>
</svg>
