<svg width="33" height="26" viewBox="0 0 33 26" fill="none" xmlns="http://www.w3.org/2000/svg">
<path d="M29.7428 2.26149C28.9554 1.54453 28.0204 0.975788 26.9913 0.587755C25.9622 0.199722 24.8592 0 23.7453 0C22.6314 0 21.5284 0.199722 20.4993 0.587755C19.4703 0.975788 18.5353 1.54453 17.7478 2.26149L16.1135 3.74873L14.4793 2.26149C12.8886 0.813961 10.7313 0.000750303 8.48175 0.000750318C6.23225 0.000750333 4.07489 0.813961 2.48425 2.26149C0.893611 3.70901 1.67601e-08 5.67228 0 7.71938C-1.67601e-08 9.76649 0.893611 11.7298 2.48425 13.1773L4.11853 14.6645L16.1135 25.5803L28.1086 14.6645L29.7428 13.1773C30.5307 12.4607 31.1556 11.6098 31.582 10.6733C32.0084 9.73684 32.2279 8.73308 32.2279 7.71938C32.2279 6.70569 32.0084 5.70193 31.582 4.76545C31.1556 3.82896 30.5307 2.97811 29.7428 2.26149Z" fill="white"/>
</svg>
