<svg width="45" height="45" fill="none" xmlns="http://www.w3.org/2000/svg"><path d="M13.098 0h18.871C39.16 0 45 5.841 45 13.03v18.872a13.03 13.03 0 01-13.03 13.03H13.098c-7.19 0-13.03-5.84-13.03-13.03V13.03A13.03 13.03 0 0113.097 0zm-.45 4.493a8.088 8.088 0 00-8.087 8.088v19.77a8.083 8.083 0 008.087 8.088h19.77a8.088 8.088 0 008.088-8.088v-19.77a8.083 8.083 0 00-8.087-8.088h-19.77zm21.68 3.37a2.808 2.808 0 110 5.617 2.808 2.808 0 010-5.617zm-11.795 3.37a11.233 11.233 0 110 22.466 11.233 11.233 0 010-22.466zm0 4.493a6.74 6.74 0 100 13.48 6.74 6.74 0 000-13.48z" fill="#836040"/></svg>