<svg width="45" height="46" viewBox="0 0 45 46" fill="none" xmlns="http://www.w3.org/2000/svg">
<path d="M22.4661 0.0771484C10.1098 0.0771484 0 10.205 0 22.6786C0 33.9568 8.2226 43.3177 18.9614 45.0094V29.22H13.255V22.6786H18.9614V17.6937C18.9614 12.032 22.3089 8.91925 27.4536 8.91925C29.9024 8.91925 32.4635 9.34782 32.4635 9.34782V14.9192H29.6328C26.847 14.9192 25.9708 16.6561 25.9708 18.438V22.6786H32.2164L31.2054 29.22H25.9708V45.0094C31.2648 44.17 36.0855 41.458 39.5627 37.363C43.0398 33.268 44.9443 28.0598 44.9322 22.6786C44.9322 10.205 34.8225 0.0771484 22.4661 0.0771484Z" fill="#836040"/>
</svg>
