<svg width="45" height="45" viewBox="0 0 45 45" fill="none" xmlns="http://www.w3.org/2000/svg">
<path d="M13.0977 0H31.9693C39.1585 0 44.9997 5.8412 44.9997 13.0304V31.9019C44.9997 35.3578 43.6268 38.6721 41.1832 41.1158C38.7395 43.5595 35.4252 44.9323 31.9693 44.9323H13.0977C5.90858 44.9323 0.0673828 39.0911 0.0673828 31.9019V13.0304C0.0673828 9.5745 1.44022 6.26017 3.88389 3.81651C6.32756 1.37284 9.64188 0 13.0977 0ZM12.6484 4.49323C10.5034 4.49323 8.44624 5.34534 6.92948 6.86209C5.41272 8.37885 4.56061 10.436 4.56061 12.581V32.3512C4.56061 36.822 8.17766 40.4391 12.6484 40.4391H32.4186C34.5637 40.4391 36.6208 39.587 38.1376 38.0702C39.6543 36.5534 40.5064 34.4963 40.5064 32.3512V12.581C40.5064 8.11028 36.8894 4.49323 32.4186 4.49323H12.6484ZM34.3283 7.86315C35.0731 7.86315 35.7873 8.15902 36.314 8.68567C36.8407 9.21233 37.1365 9.92662 37.1365 10.6714C37.1365 11.4162 36.8407 12.1305 36.314 12.6572C35.7873 13.1838 35.0731 13.4797 34.3283 13.4797C33.5835 13.4797 32.8692 13.1838 32.3425 12.6572C31.8159 12.1305 31.52 11.4162 31.52 10.6714C31.52 9.92662 31.8159 9.21233 32.3425 8.68567C32.8692 8.15902 33.5835 7.86315 34.3283 7.86315ZM22.5335 11.2331C25.5127 11.2331 28.3699 12.4166 30.4765 14.5232C32.5831 16.6298 33.7666 19.4869 33.7666 22.4661C33.7666 25.4453 32.5831 28.3025 30.4765 30.4091C28.3699 32.5157 25.5127 33.6992 22.5335 33.6992C19.5543 33.6992 16.6972 32.5157 14.5905 30.4091C12.4839 28.3025 11.3005 25.4453 11.3005 22.4661C11.3005 19.4869 12.4839 16.6298 14.5905 14.5232C16.6972 12.4166 19.5543 11.2331 22.5335 11.2331ZM22.5335 15.7263C20.746 15.7263 19.0317 16.4364 17.7677 17.7004C16.5038 18.9643 15.7937 20.6786 15.7937 22.4661C15.7937 24.2537 16.5038 25.968 17.7677 27.2319C19.0317 28.4959 20.746 29.206 22.5335 29.206C24.321 29.206 26.0354 28.4959 27.2993 27.2319C28.5633 25.968 29.2734 24.2537 29.2734 22.4661C29.2734 20.6786 28.5633 18.9643 27.2993 17.7004C26.0354 16.4364 24.321 15.7263 22.5335 15.7263Z" fill="#836040"/>
</svg>
